<?xml version="1.0"?>
<svg xmlns="http://www.w3.org/2000/svg" xmlns:xlink="http://www.w3.org/1999/xlink" version="1.1" id="Capa_1" x="0px" y="0px" viewBox="0 0 512 512" style="enable-background:new 0 0 512 512;" xml:space="preserve" width="512px" height="512px" class=""><g><path style="fill:#8F9EE0" d="M495.245,52.015c-3.898-9.804-13.213-16.428-23.753-16.89c-86.904-3.811-126.49,74.946-126.49,74.946  l120.995,86.031C465.996,196.103,527.384,132.848,495.245,52.015z" data-original="#E69C3A" class="active-path" data-old_color="#E69C3A"/><path style="fill:#FABED5;" d="M379.462,113.994c2.674-3.014,5.697-6.146,9.071-9.254c20.036-18.456,43.151-27.814,68.697-27.814  c0.735,0,1.477,0.007,2.222,0.023c13.429,36.249,1.207,69.458-9.893,89.252L379.462,113.994z" data-original="#FABED5"/><path style="fill:#8F9EE0" d="M16.755,52.015c3.898-9.804,13.213-16.428,23.753-16.89c86.904-3.811,126.49,74.946,126.49,74.946  L46.004,196.103C46.004,196.103-15.385,132.848,16.755,52.015z" data-original="#E69C3A" class="active-path" data-old_color="#E69C3A"/><path style="fill:#D99337;" d="M36.192,150.131c-3.617,5.94-6.959,11.942-10.054,17.967c9.831,17.661,19.866,28.005,19.866,28.005  l120.995-86.031c0,0-12.929-25.704-40.212-47.032C89.978,82.74,59.44,111.949,36.192,150.131z" data-original="#D99337" class=""/><path style="fill:#FABED5;" d="M132.538,113.994c-2.674-3.014-5.697-6.146-9.071-9.254c-20.036-18.456-43.15-27.814-68.697-27.814  c-0.735,0-1.477,0.007-2.222,0.023c-13.429,36.249-1.207,69.458,9.893,89.252L132.538,113.994z" data-original="#FABED5"/><path style="fill:#E6A8BF;" d="M62.441,166.2l70.097-52.207c-2.674-3.014-5.697-6.146-9.071-9.254  c-9.367-8.628-19.413-15.24-30.059-19.864C76.854,97.906,61.997,113.34,48.96,131.089C51.922,144.982,57.299,157.032,62.441,166.2z" data-original="#E6A8BF"/><path style="fill:#D99337;" d="M475.808,150.131c3.617,5.94,6.959,11.942,10.054,17.967c-9.831,17.661-19.866,28.005-19.866,28.005  l-120.995-86.031c0,0,12.929-25.704,40.212-47.032C422.022,82.74,452.56,111.949,475.808,150.131z" data-original="#D99337" class=""/><path style="fill:#E6A8BF;" d="M449.559,166.2l-70.097-52.207c2.674-3.014,5.697-6.146,9.071-9.254  c9.367-8.628,19.413-15.24,30.059-19.864c16.555,13.031,31.411,28.464,44.449,46.214C460.077,144.982,454.7,157.032,449.559,166.2z" data-original="#E6A8BF"/><path style="fill:#8F9EE0" d="M256,63.013c-200.779,0-237.773,185.264-237.773,265.992c0,72.484,10.626,134.126,175.364,145.959  l-0.01-0.01L256,434.402l62.42,40.552v0.01c164.727-11.844,175.354-73.475,175.354-145.959  C493.773,248.277,456.78,63.013,256,63.013z" data-original="#FAA330" class="" data-old_color="#FAA330"/><path style="fill:#D99337;" d="M198.965,471.456C67.338,453.782,58.236,396.031,58.236,329.004  c0-77.969,34.516-253.446,217.768-265.347c-0.003,0-0.005,0-0.008,0c-1.599-0.104-3.211-0.195-4.832-0.274  c-0.027-0.001-0.054-0.003-0.082-0.004c-1.523-0.074-3.06-0.135-4.603-0.187c-0.149-0.005-0.297-0.012-0.446-0.017  c-1.412-0.045-2.838-0.078-4.267-0.104c-0.261-0.005-0.519-0.013-0.781-0.017c-1.65-0.026-3.312-0.041-4.985-0.041  c-200.779,0-237.773,185.264-237.773,265.992c0,72.484,10.626,134.126,175.364,145.959l-0.01-0.01L198.965,471.456z" data-original="#D99337" class=""/><path style="fill:#F0F0F0;" d="M318.419,474.953v0.01c-18.747,1.34-39.479,2.045-62.42,2.045s-43.673-0.706-62.41-2.045l-0.01-0.01  c-141.173-66.092-97.132-197.783-32.698-197.783s52.161-106.367,95.117-106.367s30.683,106.367,95.117,106.367  S459.592,408.862,318.419,474.953z" data-original="#F0F0F0"/><path style="fill:#D9D9D9;" d="M265.808,476.961c1.008-0.009,1.999-0.023,2.999-0.036c2.421-0.03,4.824-0.066,7.197-0.112  c-15.154-0.292-29.281-0.911-42.405-1.849c-19.62-1.409-37.032-3.533-52.523-6.29c3.997,2.151,8.162,4.247,12.504,6.279l0.01,0.01  c7.027,0.502,14.333,0.916,21.932,1.236c12.665,0.534,26.14,0.809,40.478,0.809c2.352,0,4.666-0.012,6.972-0.027  C263.919,476.976,264.869,476.97,265.808,476.961z" data-original="#D9D9D9"/><path d="M172.475,246.347v-16.474c0-4.144-3.359-7.502-7.502-7.502s-7.502,3.358-7.502,7.502v16.474  c0,4.143,3.359,7.502,7.502,7.502S172.475,250.49,172.475,246.347z" data-original="#000000" class=""/><path d="M354.527,246.347v-16.474c0-4.144-3.358-7.502-7.502-7.502c-4.143,0-7.502,3.358-7.502,7.502v16.474  c0,4.143,3.359,7.502,7.502,7.502C351.169,253.849,354.527,250.49,354.527,246.347z" data-original="#000000" class=""/><path d="M278.55,278.38c-5.415,4.864-13.635,7.653-22.551,7.653c-8.916,0-17.136-2.79-22.552-7.653  c-3.083-2.769-7.825-2.514-10.593,0.568c-2.769,3.083-2.515,7.826,0.568,10.593c8.134,7.305,20.007,11.495,32.576,11.495  c12.569,0,24.442-4.189,32.576-11.494c3.082-2.769,3.337-7.512,0.568-10.593S281.633,275.611,278.55,278.38z" data-original="#000000" class=""/><path d="M232.841,264.114c7.04,3.033,14.886,4.726,23.159,4.726c8.272,0,16.119-1.692,23.158-4.726  c7.389-3.183,5.136-14.202-2.909-14.202h-40.5C227.704,249.911,225.452,260.93,232.841,264.114z" data-original="#000000" class=""/><path d="M502.216,49.243c-4.985-12.539-16.917-21.022-30.396-21.612c-2.136-0.094-4.293-0.141-6.408-0.141  c-49.743,0-84.072,25.38-104.976,48.401c-30.611-13.533-65.625-20.379-104.436-20.379c-41.477,0-75.883,7.716-104.442,20.374  c-20.904-23.021-55.23-48.395-104.969-48.395c-2.116,0-4.272,0.047-6.408,0.141c-13.48,0.59-25.411,9.074-30.396,21.612  C-4.113,84.196-3.19,121.587,12.453,157.374c8.597,19.666,19.391,33.773,24.809,40.179c-7.251,17.084-12.37,33.585-15.975,48.081  c-1,4.021,1.449,8.091,5.47,9.09c4.019,0.998,8.091-1.449,9.09-5.47c13.576-54.601,41.64-107.434,88.29-140.606  c35.626-25.323,79.835-38.133,131.861-38.133c46.188,0,92.868,10.713,131.072,37.548c0.056,0.042,0.107,0.09,0.165,0.131  c32.197,22.649,56.023,55.219,71.9,90.945c0.041,0.092,0.094,0.176,0.139,0.267c24.783,56.047,26.997,111.764,26.997,129.599  c0,32.351-1.852,66.005-23.989,90.714c-19.906,22.22-55.626,36.748-108.679,44.087c0.173-0.116,0.338-0.236,0.511-0.353  c20.41-13.803,38.465-31.555,50.49-53.214c12.951-23.325,18.273-51.58,12.376-78.084c-6.902-31.026-31.505-62.486-65.862-62.486  c-13.385,0-24.556-6.241-32.548-16.774c-14.377-18.946-18.772-43.283-29.439-64.178c-7.387-14.471-17.062-25.418-33.131-25.418  c-16.07,0-25.744,10.945-33.131,25.418c-11.023,21.596-15.254,47.263-31.087,66.252c-8.341,10.015-18.223,14.699-30.9,14.699  c-30.593,0-57.677,25.695-65.863,62.487c-5.711,25.673-1.316,53.404,12.377,78.083c12.029,21.681,30.055,39.439,50.505,53.224  c0.168,0.113,0.33,0.23,0.499,0.344c-53.056-7.336-88.772-21.862-108.68-44.084C27.583,395.01,25.73,361.355,25.73,329.003  c0-10.997,0.722-28.664,4.163-50.379c0.648-4.092-2.143-7.936-6.235-8.584c-4.092-0.649-7.936,2.143-8.583,6.235  c-2.845,17.952-4.348,36.184-4.348,52.728c0,76.786,13.72,141.33,182.33,153.442c19.159,1.37,40.337,2.064,62.945,2.064  c22.604,0,43.785-0.695,62.957-2.064c168.599-12.123,182.317-76.663,182.317-153.442c0-18.21-2.208-74.151-26.486-131.506  c5.399-6.384,16.155-20.445,24.756-40.123C515.19,121.588,516.114,84.197,502.216,49.243z M23.725,54.787  c2.807-7.059,9.523-11.835,17.111-12.167c1.918-0.084,3.854-0.126,5.751-0.126c42.015,0,71.858,20.498,90.865,40.267  c-1.535,0.821-3.054,1.666-4.564,2.524c-0.037,0.021-0.073,0.042-0.109,0.063c-4.076,2.317-8.058,4.765-11.947,7.341  C101.184,77.255,78.99,69.425,54.769,69.425c-3.918,0-7.724,0.782-9.257,4.918c-13.274,35.834-3.592,68.57,7.876,90.843  c-3.211,5.477-6.269,11.145-9.164,17.014c-5.207-6.925-12.344-17.707-18.235-31.32C11.991,118.544,11.23,86.214,23.725,54.787z   M57.919,84.479c18.14,0.603,34.965,6.435,50.165,17.376c-17.14,13.354-32.226,29.496-45.183,48.35  C55.303,132.471,50.326,109.342,57.919,84.479z M195.551,467.582c-49.282-23.445-99.148-72.57-85.886-132.168  c6.647-29.876,27.708-50.741,51.217-50.741c40.65,0,54.54-36.627,65.7-66.058c4.951-13.057,11.431-40.311,29.417-40.311  c13.179,0,19.905,15.229,29.416,40.31c11.712,30.885,27.239,66.058,65.701,66.058c24.088,0,41.98,21.34,48.978,42.586  c14.031,42.606-8.971,87.331-41.765,114.34c-11.855,9.763-25.135,17.797-38.904,24.547c-0.583,0.286-1.173,0.57-1.764,0.854  c-0.403,0.194-0.809,0.388-1.215,0.581c-18.436,1.277-38.764,1.925-60.447,1.925C234.308,469.507,213.981,468.86,195.551,467.582z   M449.098,150.204c-12.957-18.854-28.043-34.995-45.183-48.349c15.2-10.94,32.026-16.773,50.165-17.376  C461.673,109.342,456.697,132.471,449.098,150.204z M486.007,150.885c-5.891,13.61-13.026,24.39-18.233,31.314  c-0.01-0.021-0.021-0.042-0.032-0.063c-0.584-1.18-1.177-2.359-1.781-3.537c-2.351-4.596-4.801-9.066-7.351-13.414  c11.467-22.274,21.15-55.01,7.876-90.842c-1.528-4.127-5.361-4.92-9.258-4.92c-24.221,0-46.416,7.831-66.064,23.263  c-5.364-3.553-10.9-6.869-16.62-9.927c19.006-19.769,48.85-40.267,90.865-40.267c1.897,0,3.833,0.042,5.751,0.126  c7.589,0.333,14.305,5.108,17.112,12.167C500.77,86.215,500.008,118.548,486.007,150.885z" data-original="#000000" class=""/></g> </svg>
